<?xml version="1.0" standalone="no"?>
<!DOCTYPE svg PUBLIC "-//W3C//DTD SVG 20010904//EN"
 "http://www.w3.org/TR/2001/REC-SVG-20010904/DTD/svg10.dtd">
<svg version="1.0" xmlns="http://www.w3.org/2000/svg"
 width="673.903904pt" height="613.239055pt" viewBox="0 0 673.903904 613.239055"
 preserveAspectRatio="xMidYMid meet">
<metadata>
Created by potrace 1.12, written by Peter Selinger 2001-2015
</metadata>
<g transform="translate(-362.731964,695.790330) scale(0.100000,-0.100000)"
fill="#000000" stroke="none">
<path d="M7810 6950 c-232 -23 -407 -88 -642 -241 -78 -51 -167 -103 -198
-116 -60 -25 -158 -31 -207 -12 -41 15 -87 64 -129 134 -51 88 -99 106 -165
62 -43 -28 -86 -111 -95 -184 -9 -72 14 -190 52 -268 35 -71 125 -170 200
-220 91 -60 245 -105 365 -105 l45 0 -21 -67 c-12 -38 -37 -128 -55 -201 -37
-151 -23 -139 -135 -108 -91 26 -282 32 -384 12 -174 -34 -323 -115 -483 -265
-47 -44 -90 -81 -94 -81 -4 0 -40 -20 -79 -45 -75 -46 -142 -111 -168 -162 -9
-16 -28 -35 -43 -42 -15 -7 -45 -26 -66 -43 l-38 -30 -46 38 c-82 70 -112 84
-184 84 -135 0 -173 -27 -294 -204 -66 -96 -80 -123 -81 -158 -2 -36 -17 -66
-87 -173 -177 -271 -183 -283 -173 -338 10 -53 38 -85 173 -197 67 -56 122
-105 122 -110 0 -29 -137 -24 -178 7 -15 11 -54 57 -86 103 -105 145 -201 199
-335 186 -53 -4 -88 -17 -187 -67 -104 -53 -127 -61 -156 -55 -59 11 -69 29
-92 164 -22 128 -74 182 -173 182 -74 0 -83 -12 -40 -50 51 -45 61 -81 41
-155 -32 -119 -35 -141 -29 -190 13 -98 67 -187 143 -236 65 -41 134 -53 229
-39 172 26 169 26 206 -11 30 -31 35 -44 50 -136 26 -163 79 -261 184 -339
124 -93 267 -107 453 -45 110 37 222 49 260 29 15 -8 26 -24 28 -40 4 -34 -32
-62 -98 -78 -28 -7 -50 -15 -50 -20 0 -37 122 -116 226 -146 l60 -18 -63 -99
c-169 -268 -176 -475 -18 -548 107 -50 263 11 438 171 30 27 57 50 60 50 3 0
33 -16 66 -35 33 -20 109 -52 168 -72 104 -35 113 -37 253 -37 125 -1 156 2
225 23 163 49 284 116 447 248 l80 64 132 9 c221 16 332 40 581 124 224 75
296 91 425 91 143 0 188 -16 226 -81 34 -58 42 -90 58 -225 19 -156 52 -217
143 -263 40 -20 148 -21 218 -2 191 51 443 208 588 367 145 158 180 302 100
408 -63 82 -223 106 -377 56 -42 -14 -78 -25 -79 -25 -2 0 0 25 3 56 27 247
-119 434 -352 452 -38 2 -68 7 -68 10 0 3 18 33 39 67 21 34 66 116 100 182
l60 121 83 -34 c226 -91 414 -86 623 19 59 29 131 75 157 99 7 7 40 36 73 65
33 28 81 77 105 108 25 31 79 80 121 110 144 101 219 219 227 357 6 94 -9 160
-58 263 -33 68 -50 90 -114 145 -92 79 -134 99 -206 100 -67 0 -123 -24 -182
-77 -32 -30 -58 -43 -102 -52 -48 -11 -67 -21 -102 -57 -23 -24 -48 -61 -56
-82 -20 -57 -15 -177 10 -240 l20 -53 -23 -15 c-84 -55 -206 -9 -271 103 l-26
43 25 113 c68 296 90 681 53 912 -31 189 -107 390 -200 530 -194 289 -536 490
-892 525 -110 11 -154 11 -264 0z m351 -140 c193 -39 352 -114 501 -236 171
-141 290 -330 352 -563 39 -145 49 -261 43 -474 -15 -521 -214 -1178 -511
-1694 -96 -168 -112 -187 -190 -230 -67 -37 -227 -175 -216 -187 3 -3 48 16
100 42 158 79 224 97 370 97 109 0 130 -3 165 -22 80 -43 125 -122 133 -237 7
-97 -15 -233 -43 -271 -22 -30 -65 -109 -65 -120 0 -3 27 14 59 39 219 168
496 218 542 98 52 -136 -300 -457 -605 -551 -94 -29 -146 -28 -185 5 -34 28
-46 64 -55 164 -20 206 -71 307 -186 365 -86 43 -188 52 -345 28 l-40 -6 47
51 c53 57 123 161 114 170 -4 3 -19 -6 -34 -20 -46 -44 -205 -154 -299 -208
-109 -62 -215 -104 -359 -140 -102 -26 -302 -56 -311 -46 -7 7 104 122 159
164 29 22 80 57 113 77 l60 37 -45 -6 c-25 -3 -90 -29 -146 -56 -99 -50 -133
-75 -424 -319 -153 -128 -306 -212 -446 -242 -88 -19 -245 -14 -335 9 -139 37
-242 96 -403 231 -18 15 -19 15 -12 -19 3 -19 15 -51 26 -72 l19 -36 -47 -44
c-61 -56 -170 -134 -215 -153 -54 -22 -120 -20 -143 6 -41 45 -9 187 73 323
103 172 260 340 341 367 45 15 71 6 128 -42 60 -49 107 -75 159 -85 l40 -7
-32 -14 c-18 -7 -49 -14 -68 -16 -43 -3 -45 -12 -4 -26 117 -41 278 57 349
211 28 61 33 83 34 147 0 43 -6 89 -13 106 l-14 30 -14 -65 c-35 -166 -133
-272 -237 -254 -53 8 -88 26 -159 83 -53 41 -65 46 -121 49 -84 5 -151 -26
-249 -119 -41 -38 -83 -69 -93 -69 -29 0 -126 28 -137 39 -6 6 -2 21 13 41 34
48 37 107 8 150 -65 96 -190 110 -393 45 -207 -67 -311 -51 -419 66 -59 64
-89 129 -100 219 -18 138 -55 207 -131 241 -49 23 -96 24 -199 4 -205 -39
-330 68 -302 259 7 44 26 65 26 28 0 -10 11 -41 25 -68 33 -66 87 -98 165 -99
47 0 71 8 168 58 120 62 175 75 236 59 61 -17 103 -52 155 -127 128 -185 259
-236 403 -158 41 23 50 24 65 12 45 -35 124 -99 188 -154 130 -109 340 -281
373 -304 30 -21 46 -23 166 -27 114 -3 136 -1 162 15 19 11 80 94 162 217 72
110 168 252 213 317 90 132 118 188 119 233 0 65 -13 98 -58 143 -25 25 -41
46 -35 48 33 11 177 110 229 157 79 71 166 185 218 286 l42 80 24 -17 c41 -29
79 -76 105 -130 14 -29 28 -53 32 -53 14 0 -7 132 -29 181 -70 152 -307 267
-489 238 -65 -10 -182 -64 -212 -96 -16 -19 -16 -22 2 -64 43 -96 36 -181 -19
-234 -27 -26 -30 -27 -36 -9 -4 10 -14 27 -22 36 -12 14 -12 21 -3 32 18 21
-2 29 -52 21 -57 -10 -117 -71 -117 -119 0 -36 -13 -46 -56 -46 -57 0 -93 50
-95 127 0 35 -1 36 -11 16 -29 -61 -98 1 -98 88 0 40 -1 42 -15 23 -13 -16
-16 -17 -25 -4 -17 26 -11 111 12 158 30 63 113 140 199 187 41 21 116 76 167
120 171 151 333 223 522 232 237 12 479 -77 638 -234 61 -61 71 -68 66 -45
-22 93 -107 208 -203 275 l-24 16 32 148 c39 172 88 319 139 418 70 133 210
300 309 368 45 30 41 39 -9 21 -116 -41 -253 -143 -333 -248 -30 -39 -62 -81
-72 -94 -17 -21 -26 -23 -118 -23 -55 -1 -122 4 -150 11 -197 49 -342 206
-352 383 -5 71 12 152 31 152 5 0 18 -18 29 -40 83 -165 236 -222 429 -162 61
19 117 48 208 108 286 186 467 246 743 248 93 1 157 -5 228 -19z m1758 -1665
c33 -26 72 -60 87 -78 68 -80 106 -233 80 -320 -39 -129 -152 -235 -286 -271
-51 -13 -52 -17 -10 -29 10 -2 -6 -25 -54 -76 -262 -271 -531 -342 -819 -214
-45 20 -56 30 -51 42 33 76 110 293 134 379 17 59 33 114 35 123 4 12 16 5 53
-29 66 -63 122 -87 202 -86 71 0 134 23 195 70 29 22 38 24 50 14 22 -19 19
-5 -20 74 -81 163 -46 326 69 326 89 0 169 -171 97 -206 -30 -15 -59 -5 -112
37 -28 22 -39 26 -39 15 0 -50 63 -131 111 -141 47 -11 54 -28 30 -78 -22 -46
-26 -67 -13 -67 5 0 16 18 25 40 8 22 21 40 27 40 6 0 27 -18 47 -40 57 -63
121 -73 184 -29 29 20 77 104 66 115 -3 4 -25 -5 -47 -20 -80 -53 -140 -41
-140 29 0 40 48 108 92 131 40 21 22 30 -27 14 -35 -12 -89 -57 -112 -95 -12
-20 -12 -20 -6 0 3 11 10 25 15 32 5 6 8 44 7 84 -2 77 -2 78 62 121 21 14 22
17 7 23 -11 4 -34 -1 -57 -12 l-39 -19 -36 40 c-20 23 -36 44 -36 48 0 4 19
18 43 32 67 41 112 36 186 -19z m-4561 -203 c29 -26 52 -51 52 -55 0 -4 -15 6
-32 22 -18 17 -40 31 -48 31 -8 0 -32 3 -54 7 -25 4 -37 2 -35 -4 2 -6 43 -42
90 -79 104 -84 215 -176 323 -268 45 -38 83 -70 85 -72 1 -1 0 -8 -4 -14 -7
-11 -57 26 -364 272 -101 82 -192 148 -201 148 -18 0 -170 -191 -170 -213 0
-7 11 -36 25 -65 14 -30 22 -59 18 -65 -3 -6 -1 -7 5 -3 12 7 34 -26 30 -46
-2 -7 3 -12 10 -10 8 1 11 -2 6 -9 -16 -26 -124 146 -124 197 0 13 25 60 55
104 113 166 117 169 215 169 64 1 66 -1 118 -47z m205 -19 c-3 -10 -14 -25
-24 -33 -12 -11 -16 -23 -12 -43 4 -22 8 -25 15 -15 8 10 9 10 5 -2 -5 -21
-47 -19 -61 2 -9 15 -3 25 34 63 24 25 45 45 47 45 1 0 0 -8 -4 -17z m1022 1
c33 -8 64 -19 69 -24 23 -23 -95 -214 -189 -306 -99 -97 -244 -188 -288 -182
-24 3 -24 8 -5 81 10 43 17 51 50 64 52 21 105 86 125 152 14 49 14 62 1 123
-14 67 -14 69 6 80 56 30 146 35 231 12z m-1398 -79 c5 -15 -57 -86 -69 -79
-13 8 -1 54 20 77 16 18 43 19 49 2z m918 -305 c-10 -43 -27 -80 -35 -75 -5 3
-2 26 6 52 8 25 14 60 15 77 l1 31 9 -30 c5 -16 7 -41 4 -55z m-1182 18 c6
-15 -23 -68 -110 -200 -34 -54 -63 -107 -63 -119 0 -21 -1 -22 -20 -4 -11 10
-20 22 -20 28 0 8 157 261 183 295 5 6 13 12 17 12 5 0 10 -6 13 -12z m857
-76 c-6 -2 -7 -9 -3 -15 3 -7 -3 -4 -15 7 -26 22 -19 41 9 23 10 -6 15 -13 9
-15z m255 -31 c3 -5 0 -13 -5 -16 -7 -5 -5 -11 6 -19 13 -10 14 -15 5 -21 -18
-10 -55 29 -48 49 7 17 32 22 42 7z m-1189 -126 c-27 -42 -38 -28 -14 18 16
31 23 37 26 24 2 -10 -4 -29 -12 -42z m560 39 c10 -8 13 -12 6 -9 -8 4 -26 11
-40 15 -22 7 -23 8 -6 9 11 1 29 -6 40 -15z m-3 -123 c60 -45 60 -47 22 -95
-14 -18 -16 -17 -68 23 -87 67 -90 71 -66 109 18 27 23 30 38 19 9 -6 42 -32
74 -56z m831 -30 c4 -5 -4 -7 -16 -5 -13 2 -17 1 -9 -2 9 -5 4 -11 -19 -20
-40 -17 -71 -5 -44 17 13 11 18 11 21 2 5 -14 24 -18 22 -5 -3 17 2 22 20 22
11 0 22 -4 25 -9z m-915 -76 c34 -27 61 -54 61 -60 -1 -5 -11 -23 -24 -39
l-24 -29 -33 23 c-39 26 -99 81 -99 89 0 15 42 72 50 69 5 -2 36 -25 69 -53z"/>
<path d="M7906 6007 c-21 -12 -45 -31 -52 -42 -13 -19 -11 -20 54 -20 56 0 75
-5 115 -29 l48 -29 -20 -21 c-11 -11 -32 -48 -47 -81 -22 -47 -28 -75 -28
-133 l-1 -74 -60 6 c-34 4 -66 2 -75 -4 -13 -8 -13 -10 1 -10 62 0 176 -55
286 -136 21 -15 25 -15 56 5 53 33 86 89 110 190 20 85 23 91 47 91 54 0 100
68 85 127 l-6 26 -25 -26 c-14 -15 -32 -27 -40 -27 -28 0 -74 31 -151 100 -41
38 -94 79 -117 90 -57 27 -130 26 -180 -3z m346 -272 c8 -18 8 -32 -2 -55 -18
-43 -43 -54 -68 -32 -32 27 -33 81 -2 112 17 17 24 18 41 10 11 -6 25 -22 31
-35z"/>
<path d="M8815 5873 c-16 -9 -53 -34 -82 -55 -62 -48 -95 -48 -103 -3 l-5 30
-18 -25 c-26 -37 -22 -94 7 -118 22 -17 24 -23 16 -58 -23 -97 -6 -200 40
-246 37 -37 71 -36 115 3 65 57 96 226 58 320 -16 41 -16 42 8 61 18 14 35 18
67 15 43 -5 43 -4 37 22 -16 65 -76 88 -140 54z m10 -203 c8 -26 -15 -74 -39
-78 -43 -9 -61 63 -26 98 24 24 54 14 65 -20z"/>
<path d="M7775 5368 c-32 -25 -55 -74 -55 -118 l0 -32 42 36 41 36 17 -28 c65
-106 230 -211 388 -248 84 -20 265 -14 332 10 43 16 146 84 138 91 -2 2 -35
-5 -73 -16 -243 -69 -506 -1 -676 174 -51 52 -54 67 -13 67 30 0 31 14 2 34
-34 24 -109 21 -143 -6z"/>
<path d="M5269 4124 c-9 -11 -10 -20 -2 -32 15 -25 36 -25 52 0 12 19 11 23
-5 35 -23 17 -29 16 -45 -3z"/>
<path d="M3945 2291 c-12 -5 -27 -16 -34 -25 -7 -9 -19 -16 -26 -16 -15 0 -25
-22 -25 -54 0 -12 -7 -31 -15 -42 -14 -18 -15 -16 -9 19 4 22 2 37 -4 37 -29
0 -74 -128 -91 -265 -15 -113 -33 -335 -33 -395 1 -93 36 -414 54 -490 28
-115 128 -210 220 -210 49 0 131 43 163 84 l28 37 19 -32 c18 -30 21 -31 66
-24 26 4 48 8 48 8 1 1 3 160 5 352 l4 350 -143 -2 c-79 -1 -145 -3 -147 -5
-2 -2 -7 -22 -11 -44 -4 -31 -2 -45 11 -58 13 -13 14 -20 5 -31 -6 -7 -10 -29
-8 -47 3 -29 6 -33 28 -30 14 1 35 0 48 -3 20 -5 22 -11 22 -74 0 -94 -16
-171 -42 -198 -42 -45 -88 -19 -116 67 -14 40 -24 55 -37 55 -25 0 -30 22 -7
29 19 6 20 18 20 249 0 133 -4 247 -9 253 -6 8 -4 14 6 18 10 3 15 19 15 45 0
111 43 200 91 188 35 -9 58 -63 66 -153 6 -72 7 -74 33 -74 15 0 39 11 54 25
14 13 26 20 26 15 0 -16 44 -11 69 6 22 16 23 21 17 85 -13 146 -80 266 -177
318 -59 32 -148 48 -184 32z"/>
<path d="M10050 2286 c-30 -6 -70 -23 -88 -36 -27 -20 -35 -22 -42 -10 -6 10
-14 5 -30 -24 -26 -43 -33 -43 -21 2 9 31 9 32 -17 26 -43 -10 -54 -32 -47
-89 4 -27 6 -312 6 -632 l-1 -582 22 -15 c33 -23 61 -20 79 10 l16 26 19 -38
c11 -22 28 -41 39 -43 11 -2 22 -7 25 -12 3 -4 5 117 5 269 0 267 1 277 19
277 23 0 38 -59 86 -338 16 -98 35 -187 40 -198 12 -21 60 -27 60 -6 0 7 5 5
10 -5 13 -22 119 -53 133 -39 7 7 2 46 -17 128 -44 191 -46 198 -57 182 -7 -9
-8 1 -4 32 5 30 -2 93 -20 192 l-28 146 27 32 c38 45 54 88 69 187 11 74 13
127 8 201 -1 7 -7 11 -16 7 -9 -3 -15 0 -15 8 0 8 7 17 16 20 14 5 16 17 11
69 -12 133 -72 234 -152 256 -48 13 -64 13 -135 -3z m68 -286 c21 -41 23 -56
20 -155 -5 -133 -19 -169 -76 -184 -20 -6 -40 -11 -44 -11 -5 0 -8 87 -8 194
l0 195 28 4 c48 7 57 3 80 -43z"/>
<path d="M9620 2205 c-47 -12 -119 -28 -160 -35 -41 -7 -90 -17 -107 -22 l-33
-10 -2 -266 c-1 -147 -1 -278 0 -292 4 -58 5 -421 2 -492 -2 -43 -1 -80 2 -83
3 -4 67 -15 142 -26 75 -10 156 -23 179 -29 82 -19 94 -15 101 31 5 31 3 46
-9 59 -14 16 -14 18 0 23 11 5 15 20 15 56 0 58 3 57 -128 66 -77 6 -94 10
-103 26 -6 12 -9 73 -7 149 l3 130 35 2 c19 1 58 3 85 3 l50 0 2 112 2 112
-87 -2 -87 -2 0 30 c-1 17 -5 39 -10 49 -6 13 -5 21 3 24 8 2 12 28 12 72 l0
68 73 12 c39 6 89 13 110 16 36 6 37 7 37 50 0 34 -5 46 -21 55 l-21 11 20 14
c19 13 22 36 13 95 -2 16 -32 15 -111 -6z"/>
<path d="M4399 2189 c-3 -54 4 -1235 7 -1241 8 -13 62 -9 76 6 9 10 17 10 30
3 12 -8 26 -8 45 -1 l28 9 3 253 2 252 70 0 70 0 -6 -240 c-7 -264 -7 -263 53
-243 23 8 29 17 33 49 l6 39 7 -38 c5 -20 5 -42 2 -47 -4 -6 85 13 90 20 0 0
1 247 2 549 l1 548 -36 12 c-21 6 -50 11 -67 11 -16 0 -43 1 -60 2 l-30 3 4
-223 4 -223 -69 3 -69 3 -1 233 c-1 190 -4 236 -15 243 -21 13 -99 11 -99 -3
0 -7 -5 -5 -12 5 -18 22 -68 34 -69 16z"/>
<path d="M9155 2120 c-38 -10 -88 -19 -110 -19 -53 -1 -248 -42 -256 -54 -4
-5 -6 -46 -5 -91 l1 -81 68 3 67 4 1 -39 c1 -21 4 -76 6 -123 6 -103 7 -79 -2
-386 -7 -270 -5 -288 40 -297 21 -4 29 1 38 21 l12 25 5 -24 c5 -20 13 -24 52
-27 l45 -3 -1 435 c0 239 2 437 6 441 3 4 26 9 50 11 78 9 85 12 91 41 3 16 1
34 -5 41 -7 8 -7 16 -1 25 10 12 9 77 -1 104 -6 16 -12 15 -101 -7z"/>
<path d="M5177 2066 c-134 -37 -190 -206 -182 -551 6 -266 43 -397 128 -453
36 -24 50 -27 121 -27 95 1 141 20 199 84 119 132 140 618 36 822 -50 100
-188 157 -302 125z m126 -193 c23 -27 36 -87 43 -208 4 -61 10 -115 15 -121 5
-6 4 -26 -2 -45 -6 -19 -12 -56 -15 -84 -6 -80 -23 -148 -44 -175 -16 -21 -22
-23 -47 -14 -40 14 -51 44 -64 180 -20 206 6 436 54 469 28 19 40 19 60 -2z"/>
<path d="M5208 1538 c-2 -35 -1 -72 3 -83 3 -11 7 17 8 63 2 96 -6 110 -11 20z"/>
<path d="M8625 2044 c-44 -7 -80 -13 -80 -13 -1 -1 0 -101 2 -223 2 -123 0
-216 -3 -208 -4 8 -36 94 -71 190 -85 229 -87 232 -121 224 -15 -4 -30 -12
-34 -17 -4 -7 -11 -7 -21 2 -11 8 -26 9 -49 3 l-33 -8 -2 -446 -2 -446 25 -6
c13 -4 34 -1 46 5 17 9 20 9 16 -2 -4 -11 6 -14 44 -14 l50 0 -1 195 c-1 107
-5 213 -8 235 -3 22 -3 38 0 35 7 -6 92 -228 142 -369 19 -52 40 -98 47 -103
7 -4 29 -8 48 -7 19 0 44 -2 55 -5 11 -4 25 -3 31 1 15 10 24 985 9 988 -5 1
-46 -4 -90 -11z"/>
<path d="M5747 2006 c-50 -14 -87 -40 -87 -63 0 -7 -3 -13 -8 -13 -20 0 -42
-69 -45 -140 -4 -142 33 -205 199 -331 93 -71 119 -154 64 -204 -46 -41 -100
15 -100 105 0 47 0 47 -105 22 l-70 -17 -3 -38 c-4 -49 23 -144 53 -183 35
-46 82 -64 168 -65 101 -1 153 16 205 69 34 33 41 46 33 56 -9 10 -8 15 3 19
19 7 40 110 32 156 -19 113 -64 175 -190 259 -38 26 -77 60 -88 77 -34 56 -17
135 30 135 37 0 62 -39 62 -95 0 -40 -7 -39 93 -18 17 4 40 6 50 4 46 -6 33
118 -21 192 -22 31 -43 46 -79 59 -72 24 -141 30 -196 14z"/>
<path d="M7963 1982 c-13 -2 -24 -9 -24 -15 -1 -7 0 -149 1 -317 2 -257 0
-312 -13 -343 -18 -43 -50 -49 -88 -18 -22 18 -24 28 -27 123 -3 87 -2 261 2
498 l1 55 -90 -3 c-49 -2 -93 -6 -97 -8 -11 -7 -8 -565 4 -645 20 -142 105
-211 257 -211 103 0 156 32 199 117 29 58 31 86 37 448 l6 327 -49 0 c-26 0
-53 -5 -60 -12 -7 -7 -16 -8 -24 -2 -7 6 -23 8 -35 6z"/>
<path d="M6133 1972 c-7 -4 -11 -24 -9 -47 2 -22 -1 -48 -7 -59 -6 -12 -5 -27
2 -42 10 -22 17 -24 75 -24 l64 0 7 -42 c9 -53 9 -234 0 -443 -4 -89 -4 -172
0 -184 10 -31 81 -31 91 1 6 19 8 20 18 6 17 -23 62 -33 72 -16 5 7 9 162 9
343 l0 330 73 -3 c71 -3 72 -3 72 22 0 14 -5 28 -11 31 -7 5 -5 11 5 18 11 9
14 23 9 53 l-5 41 -207 7 c-113 4 -215 9 -226 12 -11 2 -25 1 -32 -4z"/>
<path d="M7490 1955 c-7 -9 -17 -12 -24 -7 -6 4 -36 8 -66 7 l-55 0 0 -160 0
-160 -45 2 c-25 1 -55 2 -67 2 -23 1 -23 2 -23 156 0 171 -5 184 -56 150 -23
-15 -29 -15 -65 -1 -73 29 -69 51 -69 -405 l0 -409 25 -6 c43 -11 75 3 76 34
1 22 2 23 6 5 6 -29 27 -45 55 -41 23 3 23 4 26 176 l2 172 70 0 70 0 -3 -172
-2 -173 87 -3 c60 -2 89 1 94 10 10 16 16 438 6 438 -4 0 -5 39 -2 87 3 49 5
137 5 198 0 92 -3 110 -16 113 -9 1 -22 -4 -29 -13z"/>
<path d="M8753 1850 c0 -36 2 -50 4 -32 2 17 2 47 0 65 -2 17 -4 3 -4 -33z"/>
<path d="M9538 1826 c-1 -25 0 -55 3 -68 4 -13 7 5 8 45 1 76 -5 90 -11 23z"/>
<path d="M7843 1775 c0 -22 2 -30 4 -17 2 12 2 30 0 40 -3 9 -5 -1 -4 -23z"/>
<path d="M9139 1758 c-5 -44 -4 -68 2 -85 5 -11 8 5 8 40 1 31 -1 57 -4 57 -3
0 -6 -6 -6 -12z"/>
<path d="M6612 1582 c-8 -2 -12 -28 -12 -72 l0 -69 159 1 c87 0 164 4 170 8 8
4 11 30 9 71 l-3 64 -156 1 c-85 0 -161 -2 -167 -4z"/>
<path d="M10327 1555 c-9 -19 -15 -35 -12 -35 7 0 37 61 33 66 -3 2 -12 -12
-21 -31z"/>
<path d="M4330 1348 c0 -57 3 -78 10 -68 13 20 13 150 0 150 -6 0 -10 -34 -10
-82z"/>
<path d="M6682 1421 c-16 -10 27 -20 73 -16 17 1 47 3 68 3 23 1 36 6 32 12
-7 12 -155 13 -173 1z"/>
<path d="M8743 1345 c0 -44 2 -61 4 -37 2 23 2 59 0 80 -2 20 -4 1 -4 -43z"/>
<path d="M6107 1287 c-3 -8 -1 -20 4 -28 6 -10 9 -7 9 14 0 29 -5 35 -13 14z"/>
<path d="M8081 1121 c-8 -5 -20 -7 -27 -4 -7 3 -22 -2 -34 -10 -21 -14 -21
-15 4 -19 14 -3 23 -1 20 3 -3 5 4 9 14 9 11 0 25 7 32 15 14 17 11 19 -9 6z"/>
<path d="M5485 1098 c-7 -17 -17 -22 -35 -20 -20 2 -22 1 -10 -8 13 -9 13 -11
0 -19 -8 -6 -12 -13 -8 -16 7 -7 78 61 78 75 0 18 -15 10 -25 -12z"/>
<path d="M6013 1110 c-13 -5 -23 -13 -23 -16 0 -4 3 -4 7 -1 3 4 12 2 20 -4
10 -9 17 -8 28 1 32 26 12 38 -32 20z"/>
<path d="M7098 1112 c-16 -2 -28 -8 -28 -14 0 -6 11 -8 25 -6 15 3 22 1 18 -5
-4 -6 0 -8 11 -4 10 4 20 7 22 7 2 0 4 4 4 9 0 12 -20 17 -52 13z"/>
<path d="M7205 1105 l-30 -14 31 -1 c21 0 31 5 31 15 0 8 -1 15 -1 14 -1 0
-14 -7 -31 -14z"/>
<path d="M7550 1112 c0 -5 -12 -7 -26 -4 -19 3 -25 1 -20 -7 9 -13 52 -15 61
-2 3 5 1 12 -5 16 -5 3 -10 2 -10 -3z"/>
<path d="M6355 1100 c-3 -5 1 -10 9 -10 8 0 18 5 21 10 3 6 -1 10 -9 10 -8 0
-18 -4 -21 -10z"/>
<path d="M7385 1100 c-3 -5 2 -10 12 -11 10 0 34 -1 54 -2 26 -1 35 2 32 11
-6 14 -89 17 -98 2z"/>
<path d="M8737 1068 c-4 -17 -15 -28 -30 -31 -20 -3 -20 -4 6 -11 35 -10 39
-6 35 36 -3 33 -3 33 -11 6z"/>
<path d="M5785 1050 c19 -8 83 -14 74 -6 -2 2 -24 6 -49 9 -30 4 -38 3 -25 -3z"/>
<path d="M4332 978 c1 -43 6 -78 10 -78 11 0 7 126 -4 142 -5 8 -8 -19 -6 -64z"/>
</g>
</svg>
