<?xml version="1.0" standalone="no"?>
<!DOCTYPE svg PUBLIC "-//W3C//DTD SVG 20010904//EN"
 "http://www.w3.org/TR/2001/REC-SVG-20010904/DTD/svg10.dtd">
<svg version="1.0" xmlns="http://www.w3.org/2000/svg"
 width="658.981290pt" height="466.533780pt" viewBox="0 0 658.981290 466.533780"
 preserveAspectRatio="xMidYMid meet">
<metadata>
Created by potrace 1.12, written by Peter Selinger 2001-2015
</metadata>
<g transform="translate(-360.922636,695.790502) scale(0.100000,-0.100000)"
fill="#ffffff" stroke="none">
<path d="M7840 6953 c-140 -10 -314 -54 -443 -112 -61 -28 -284 -161 -362
-216 -56 -40 -120 -57 -199 -53 -88 4 -129 30 -183 117 -76 120 -115 137 -190
82 -60 -43 -86 -113 -87 -226 -1 -268 204 -486 504 -534 36 -6 86 -11 111 -11
l46 0 -18 -52 c-9 -29 -33 -116 -53 -193 -20 -77 -38 -145 -41 -152 -3 -9 -13
-8 -42 3 -90 38 -294 54 -423 33 -67 -10 -192 -50 -245 -77 -64 -33 -173 -112
-244 -178 -40 -38 -112 -93 -160 -122 -99 -61 -142 -100 -181 -159 -15 -23
-56 -62 -94 -88 l-68 -46 -34 28 c-124 100 -109 93 -192 93 -125 0 -164 -20
-233 -116 -124 -172 -150 -218 -145 -249 6 -33 0 -43 -147 -264 -101 -152
-122 -197 -113 -244 9 -47 40 -86 131 -161 150 -123 172 -145 155 -156 -24
-15 -108 -12 -147 7 -24 11 -59 48 -103 107 -113 152 -174 190 -310 190 -85 1
-85 1 -212 -63 -102 -50 -133 -62 -155 -56 -54 13 -71 31 -83 92 -6 32 -16 81
-21 110 -15 76 -68 133 -131 140 -26 3 -63 2 -83 -1 l-36 -7 48 -43 c44 -40
48 -48 47 -87 0 -25 -9 -69 -20 -99 -51 -149 3 -321 122 -390 75 -44 138 -54
237 -40 178 25 163 26 201 -12 29 -29 35 -44 41 -94 8 -75 40 -184 71 -246 48
-95 123 -156 243 -198 89 -31 199 -24 336 20 55 18 131 34 170 37 62 4 73 2
93 -16 45 -44 22 -78 -70 -107 -32 -10 -58 -23 -58 -29 0 -35 142 -120 244
-146 l44 -11 -44 -66 c-53 -79 -116 -207 -138 -282 -45 -150 4 -278 118 -310
115 -32 270 37 431 191 23 22 44 39 47 39 4 0 33 -16 65 -35 75 -45 251 -103
347 -113 246 -26 519 77 767 290 l56 49 133 9 c228 16 381 50 646 143 213 75
403 96 508 57 44 -17 59 -29 79 -63 34 -57 54 -135 62 -237 10 -130 52 -207
137 -251 61 -31 207 -23 293 16 16 7 61 27 98 44 236 105 481 321 536 472 40
111 36 167 -17 238 -61 81 -217 106 -374 57 l-76 -23 0 96 c0 133 -25 208 -93
285 -74 82 -172 126 -281 126 -27 0 -48 3 -48 8 0 4 15 31 34 59 36 55 37 57
114 210 l52 102 96 -39 c126 -52 190 -63 321 -58 96 4 118 9 203 43 89 35 223
112 245 139 6 7 38 36 71 64 34 28 83 78 109 111 27 35 74 78 112 102 81 53
155 136 196 219 26 54 32 79 35 150 3 73 -1 98 -25 176 -17 49 -41 107 -55
127 -34 50 -154 156 -203 178 -87 40 -200 16 -280 -60 -26 -26 -53 -41 -80
-46 -138 -24 -213 -148 -186 -308 6 -38 18 -81 26 -97 15 -28 14 -30 -10 -46
-42 -28 -115 -30 -163 -5 -41 21 -115 103 -127 140 -3 11 5 68 19 128 54 235
82 556 66 763 -16 213 -51 353 -131 528 -118 253 -347 470 -613 578 -127 52
-246 82 -366 94 -102 10 -135 10 -230 3z m321 -143 c233 -48 424 -151 582
-314 173 -179 266 -383 308 -675 17 -123 6 -456 -20 -596 -12 -60 -26 -141
-32 -179 -25 -156 -153 -566 -242 -776 -121 -285 -301 -609 -349 -625 -59 -20
-278 -199 -278 -227 0 -4 39 12 88 37 192 98 272 119 422 113 139 -6 200 -44
246 -153 37 -90 25 -318 -21 -380 -21 -29 -65 -109 -65 -119 0 -3 28 16 63 42
209 158 466 210 533 107 69 -105 -183 -377 -475 -512 -154 -72 -246 -89 -301
-56 -39 23 -49 49 -65 182 -26 205 -63 284 -163 345 -64 38 -170 60 -250 52
-26 -3 -71 -8 -101 -11 l-54 -6 57 62 c54 60 111 147 102 156 -2 3 -30 -16
-61 -41 -202 -165 -428 -281 -645 -330 -120 -27 -289 -51 -298 -42 -3 3 31 41
74 84 74 74 194 161 252 183 41 16 16 22 -35 10 -65 -17 -204 -83 -264 -126
-27 -19 -104 -81 -171 -138 -230 -194 -301 -246 -413 -297 -124 -58 -159 -65
-320 -65 -130 0 -160 3 -227 24 -43 13 -83 30 -89 37 -6 8 -17 14 -25 14 -29
0 -179 105 -228 159 -11 12 -23 21 -28 21 -16 0 -8 -48 17 -93 l24 -47 -71
-61 c-175 -151 -301 -191 -343 -109 -34 66 29 235 150 405 109 152 228 261
298 271 35 5 46 -1 147 -78 36 -28 73 -48 88 -49 15 0 36 -4 47 -8 17 -7 14
-10 -20 -20 -22 -6 -52 -11 -67 -11 -35 0 -36 -13 -3 -28 101 -46 274 48 345
188 50 98 62 236 26 285 -10 14 -15 5 -29 -63 -23 -104 -79 -191 -144 -223
-41 -20 -50 -21 -100 -10 -37 9 -74 28 -118 61 -76 57 -121 74 -185 68 -69 -7
-130 -41 -215 -120 l-75 -70 -66 13 c-36 7 -73 18 -82 25 -15 11 -14 16 11 51
82 119 -40 247 -218 229 -33 -3 -109 -22 -169 -41 -186 -59 -299 -46 -401 47
-70 64 -103 132 -121 249 -17 115 -45 174 -102 214 -49 33 -75 35 -277 20 -91
-7 -105 -5 -141 13 -89 45 -131 146 -108 261 9 43 18 39 32 -14 16 -60 73
-122 125 -136 63 -17 105 -7 232 56 130 65 187 77 247 51 48 -21 104 -70 136
-120 38 -61 122 -145 167 -169 63 -33 165 -30 232 7 l52 29 47 -39 c25 -21 55
-44 66 -51 11 -6 23 -15 27 -20 8 -11 131 -116 157 -134 11 -8 45 -35 75 -61
107 -93 205 -168 234 -182 21 -10 67 -13 155 -12 104 1 130 4 152 20 24 16
213 283 231 326 3 8 42 67 86 130 116 166 162 244 168 287 8 61 -14 123 -58
165 l-39 37 27 17 c120 75 201 135 250 188 89 94 175 222 203 299 10 27 10 27
40 12 16 -9 30 -19 30 -23 0 -4 14 -21 30 -39 17 -18 39 -53 50 -78 11 -25 22
-45 26 -45 3 0 5 29 2 63 -6 101 -52 183 -136 246 -116 87 -280 133 -392 110
-60 -12 -178 -69 -205 -99 -17 -18 -16 -22 4 -65 44 -93 37 -176 -18 -229
l-28 -27 -22 37 c-16 27 -19 40 -11 49 28 34 -70 28 -115 -7 -27 -21 -70 -96
-61 -106 3 -3 1 -11 -5 -19 -14 -16 -63 -17 -91 -2 -25 14 -48 67 -49 116 0
33 -2 35 -11 17 -6 -13 -19 -21 -35 -21 -34 0 -63 49 -63 107 -1 43 -1 44 -14
21 -13 -24 -14 -24 -25 -3 -19 35 -13 113 12 160 36 67 118 144 205 190 43 23
94 57 114 76 204 198 416 287 653 273 220 -13 448 -114 576 -255 45 -50 51
-54 45 -29 -21 91 -101 204 -196 276 -23 17 -30 30 -27 45 2 12 14 68 26 126
26 124 77 281 125 385 63 135 217 326 323 398 38 25 43 41 11 32 -39 -12 -171
-85 -219 -122 -54 -41 -140 -136 -184 -202 l-30 -46 -75 -7 c-107 -9 -191 6
-286 51 -147 70 -239 193 -251 339 -4 55 -2 82 11 117 10 25 21 43 25 41 4 -3
20 -30 35 -60 34 -66 80 -110 154 -144 49 -22 63 -24 146 -19 125 7 164 24
376 159 199 127 331 178 540 211 81 13 288 6 381 -13z m1712 -1637 c65 -33
144 -112 176 -176 37 -73 56 -193 40 -251 -15 -55 -89 -156 -145 -199 -27 -20
-83 -51 -124 -67 -41 -17 -63 -29 -47 -27 15 2 27 1 27 -4 0 -5 -28 -38 -61
-74 -252 -269 -537 -345 -820 -218 l-56 25 19 51 c42 108 80 214 95 262 34
114 43 144 43 154 0 5 5 22 10 36 l10 27 53 -44 c81 -70 111 -82 197 -81 83 1
133 18 189 63 27 23 38 27 53 19 25 -13 23 -8 -18 76 -62 125 -58 265 9 305
37 23 84 25 109 6 77 -58 104 -158 53 -192 -30 -20 -55 -12 -117 37 -29 24
-38 27 -38 15 0 -52 78 -146 121 -146 29 0 34 -27 15 -81 -24 -65 -14 -86 12
-26 12 26 26 47 33 47 12 0 69 -57 69 -70 0 -15 71 -32 105 -26 38 7 97 63
116 109 17 40 5 44 -41 13 -55 -36 -95 -43 -120 -21 -43 39 -9 129 67 176 35
22 36 24 15 27 -29 4 -104 -39 -126 -73 -20 -31 -33 -27 -16 5 6 11 11 52 12
91 l0 70 39 26 c22 14 39 30 39 34 0 15 -44 10 -75 -10 l-31 -18 -37 43 c-21
24 -35 48 -32 54 12 19 80 49 113 50 18 0 47 -7 65 -17z m-4516 -229 c31 -30
37 -39 17 -25 -32 21 -135 40 -133 25 0 -10 109 -102 141 -120 11 -7 34 -25
51 -42 18 -16 59 -51 93 -78 108 -87 219 -185 219 -194 0 -5 4 -12 9 -17 5 -5
6 -3 2 5 -10 16 9 15 23 -2 9 -10 8 -15 -2 -19 -18 -7 -89 51 -80 66 4 6 0 8
-10 4 -11 -4 -25 5 -43 26 -14 18 -22 25 -18 17 9 -17 -38 17 -139 99 -38 31
-123 100 -190 153 -134 108 -137 108 -181 40 -13 -20 -40 -57 -60 -81 -55 -66
-59 -76 -45 -119 7 -20 12 -43 11 -49 -2 -7 4 -26 13 -43 29 -56 7 -30 -29 34
-38 68 -43 94 -24 129 30 58 152 219 171 227 12 5 52 9 89 9 65 1 67 0 115
-45z m202 -36 c-5 -18 -9 -34 -9 -35 0 -1 -7 0 -15 3 -16 7 -21 -11 -6 -21 16
-9 8 -45 -9 -45 -20 0 -40 19 -40 38 0 11 74 92 85 92 2 0 -1 -15 -6 -32z
m1021 16 c39 -8 72 -20 75 -25 8 -12 -75 -182 -97 -199 -3 -3 -21 -23 -38 -45
-79 -100 -278 -245 -338 -245 -26 0 -39 24 -24 43 6 6 13 29 17 49 6 31 14 41
51 59 56 27 100 80 121 146 14 45 15 62 5 116 -16 85 -16 83 16 95 62 25 124
26 212 6z m-1400 -87 c0 -25 -52 -82 -63 -70 -14 14 -6 45 18 68 30 31 45 32
45 2z m914 -329 c-9 -27 -17 -48 -19 -48 -4 0 3 67 12 120 l6 35 8 -30 c6 -21
4 -45 -7 -77z m-1014 51 c6 -11 5 -16 -4 -16 -7 0 -13 5 -13 11 0 6 -4 20 -8
31 -6 16 -5 17 4 5 7 -8 16 -22 21 -31z m-156 -1 c4 -17 -6 -41 -37 -88 -24
-36 -61 -91 -81 -122 -21 -32 -44 -74 -50 -93 l-13 -35 -18 21 c-19 20 -19 21
0 54 48 81 181 285 186 285 4 0 9 -10 13 -22z m196 -85 c0 5 5 5 10 2 6 -4 8
-11 4 -16 -7 -12 -34 8 -34 25 0 6 5 4 10 -4 5 -8 10 -11 10 -7z m925 -23 c3
-5 1 -10 -5 -10 -6 0 -8 -10 -4 -25 7 -29 -2 -32 -28 -8 -27 24 -23 53 6 53
14 0 28 -4 31 -10z m-1199 -125 c-27 -41 -36 -28 -13 18 15 30 22 37 25 24 2
-10 -4 -29 -12 -42z m582 26 c22 -16 43 -35 48 -42 4 -7 -11 2 -33 20 -22 17
-53 36 -69 41 -22 6 -24 8 -8 9 12 1 39 -12 62 -28z m-30 -106 c28 -21 52 -44
52 -51 0 -6 -9 -23 -21 -38 l-21 -26 -59 46 c-81 64 -81 64 -57 102 17 27 22
30 37 19 9 -6 40 -30 69 -52z m836 -34 c3 -4 -14 -15 -37 -24 -34 -13 -38 -14
-23 -2 11 8 16 15 12 15 -4 0 -4 5 -1 10 8 12 42 13 49 1z m-918 -72 c32 -29
60 -56 62 -60 2 -5 -6 -22 -18 -39 l-22 -30 -31 17 c-41 22 -107 84 -107 99 0
14 38 64 49 64 4 0 34 -23 67 -51z"/>
<path d="M7909 6010 c-31 -16 -69 -58 -69 -75 0 -3 10 -1 22 6 33 17 113 4
163 -28 44 -27 44 -28 25 -48 -10 -11 -31 -47 -47 -80 -22 -48 -28 -74 -28
-133 l0 -73 -66 7 c-45 4 -69 3 -73 -5 -4 -6 0 -11 9 -11 48 0 173 -55 232
-101 73 -58 89 -58 141 0 45 50 56 74 78 169 18 79 20 82 47 82 52 0 103 84
83 137 -6 14 -10 13 -34 -10 -16 -15 -34 -27 -41 -27 -25 0 -74 33 -148 100
-41 38 -94 79 -117 90 -54 25 -129 26 -177 0z m326 -250 c11 -12 19 -36 19
-55 0 -33 -26 -75 -47 -75 -42 0 -62 84 -31 128 19 27 36 28 59 2z"/>
<path d="M8809 5872 c-14 -9 -48 -34 -77 -55 -62 -46 -94 -47 -102 -3 -5 26
-6 28 -19 12 -8 -9 -17 -34 -21 -56 -6 -34 -4 -42 21 -66 24 -23 26 -29 17
-56 -6 -16 -8 -67 -6 -113 4 -72 8 -88 32 -119 32 -42 65 -53 106 -36 38 16
65 60 86 141 19 75 15 186 -9 222 -14 22 -13 24 15 40 16 9 48 17 69 17 37 0
40 2 34 23 -4 12 -17 32 -28 45 -25 27 -80 29 -118 4z m16 -202 c8 -26 -15
-74 -39 -78 -43 -9 -61 63 -26 98 24 24 54 14 65 -20z"/>
<path d="M7816 5390 c-57 -18 -96 -76 -96 -142 1 -32 1 -33 18 -13 9 11 29 28
44 37 25 17 27 17 32 0 14 -42 130 -146 208 -187 133 -70 171 -79 328 -80 159
0 177 4 272 64 72 45 77 66 11 41 -237 -89 -538 -15 -718 176 -38 40 -37 54 1
54 29 0 31 11 6 33 -23 21 -69 29 -106 17z"/>
<path d="M5269 4124 c-9 -11 -10 -20 -2 -32 15 -25 36 -25 51 -1 23 37 -20 67
-49 33z"/>
</g>
</svg>
